<?xml version="1.0" encoding="iso-8859-1"?>
<!-- Uploaded to: SVG Repo, www.svgrepo.com, Generator: SVG Repo Mixer Tools -->
<!DOCTYPE svg PUBLIC "-//W3C//DTD SVG 1.1//EN" "http://www.w3.org/Graphics/SVG/1.1/DTD/svg11.dtd">
<svg fill="#000000" height="800px" width="800px" version="1.1" id="Capa_1" xmlns="http://www.w3.org/2000/svg" xmlns:xlink="http://www.w3.org/1999/xlink" 
	 viewBox="0 0 304.43 304.43" xml:space="preserve">
<path d="M302.819,213.068l-84.081-85.638c-4.173-4.25-9.878-6.644-15.834-6.644h-21.217c11.843-18.241,19.498-43.024,19.498-55.207
	c0-20.619-21.925-42.333-48.971-42.333s-48.971,21.715-48.971,42.333c0,12.183,7.656,36.966,19.498,55.207h-21.217
	c-5.956,0-11.662,2.394-15.834,6.644L1.61,213.068c-2.045,2.083-2.155,5.385-0.254,7.6l17.714,20.631
	c1.903,2.216,5.186,2.606,7.554,0.896l58.162-41.983l-6.997,74.828c-0.147,1.575,0.376,3.139,1.441,4.308
	c1.065,1.169,2.574,1.836,4.156,1.836h61.329V116.413c-9.968-7.474-17.19-27.756-17.19-36.157c0-10.396,11.054-21.344,24.69-21.344
	c13.636,0,24.69,10.948,24.69,21.344c0,8.402-7.222,28.684-17.19,36.158v164.771h61.329c1.582,0,3.09-0.667,4.155-1.836
	c1.065-1.169,1.588-2.733,1.441-4.308l-6.998-74.828l58.162,41.983c2.368,1.71,5.652,1.32,7.555-0.896l17.714-20.631
	C304.975,218.453,304.865,215.151,302.819,213.068z"/>
</svg>